<mxfile host="app.diagrams.net" agent="Mozilla/5.0 (Windows NT 10.0; Win64; x64; rv:139.0) Gecko/20100101 Firefox/139.0" version="27.1.1">
  <diagram name="Page-1" id="_FQVNeIpqcwK4nDq1bks">
    <mxGraphModel dx="1181" dy="635" grid="1" gridSize="10" guides="1" tooltips="1" connect="1" arrows="1" fold="1" page="1" pageScale="1" pageWidth="850" pageHeight="1100" math="0" shadow="0">
      <root>
        <mxCell id="0" />
        <mxCell id="1" parent="0" />
        <mxCell id="_730n6dWhtNbFrDa7IIU-3" value="SPARQL Query Engine" style="rounded=1;whiteSpace=wrap;html=1;fillColor=#FFE599;" vertex="1" parent="1">
          <mxGeometry x="360" y="120" width="160" height="40" as="geometry" />
        </mxCell>
        <mxCell id="_730n6dWhtNbFrDa7IIU-5" value="Triplestore" style="rounded=1;whiteSpace=wrap;html=1;fillColor=#B9E0A5;" vertex="1" parent="1">
          <mxGeometry x="300" y="360" width="100" height="40" as="geometry" />
        </mxCell>
        <mxCell id="_730n6dWhtNbFrDa7IIU-6" value="Dictionary" style="rounded=1;whiteSpace=wrap;html=1;fillColor=#D5E8D4;" vertex="1" parent="1">
          <mxGeometry x="480" y="360" width="100" height="40" as="geometry" />
        </mxCell>
        <mxCell id="_730n6dWhtNbFrDa7IIU-13" value="&lt;ol&gt;&lt;li&gt;Lexer&lt;/li&gt;&lt;li&gt;Parser&lt;/li&gt;&lt;/ol&gt;" style="rounded=0;whiteSpace=wrap;html=1;align=left;fillColor=#FFE599;" vertex="1" parent="1">
          <mxGeometry x="200" y="40" width="120" height="40" as="geometry" />
        </mxCell>
        <mxCell id="_730n6dWhtNbFrDa7IIU-14" value="" style="endArrow=none;html=1;rounded=0;entryX=1;entryY=1;entryDx=0;entryDy=0;exitX=0;exitY=0;exitDx=0;exitDy=0;" edge="1" parent="1" source="_730n6dWhtNbFrDa7IIU-3" target="_730n6dWhtNbFrDa7IIU-13">
          <mxGeometry width="50" height="50" relative="1" as="geometry">
            <mxPoint x="400" y="370" as="sourcePoint" />
            <mxPoint x="450" y="320" as="targetPoint" />
          </mxGeometry>
        </mxCell>
        <mxCell id="_730n6dWhtNbFrDa7IIU-19" value="&lt;div&gt;Hexastore format&lt;/div&gt;&lt;div&gt;- Stores all permutations of subject-predicate-object&lt;/div&gt;&lt;div&gt;- Elides need for indicies&lt;/div&gt;&lt;div&gt;Concurrency-first architecture&lt;/div&gt;" style="rounded=0;whiteSpace=wrap;html=1;align=left;fillColor=#B9E0A5;" vertex="1" parent="1">
          <mxGeometry x="120" y="440" width="160" height="80" as="geometry" />
        </mxCell>
        <mxCell id="_730n6dWhtNbFrDa7IIU-20" value="" style="endArrow=none;html=1;rounded=0;exitX=1;exitY=0;exitDx=0;exitDy=0;entryX=0;entryY=1;entryDx=0;entryDy=0;" edge="1" parent="1" source="_730n6dWhtNbFrDa7IIU-19" target="_730n6dWhtNbFrDa7IIU-5">
          <mxGeometry width="50" height="50" relative="1" as="geometry">
            <mxPoint x="630" y="430" as="sourcePoint" />
            <mxPoint x="680" y="380" as="targetPoint" />
          </mxGeometry>
        </mxCell>
        <mxCell id="_730n6dWhtNbFrDa7IIU-21" value="Maps strings to unique IDs for fast operations." style="rounded=0;whiteSpace=wrap;html=1;align=left;fillColor=#D5E8D4;" vertex="1" parent="1">
          <mxGeometry x="600" y="440" width="160" height="40" as="geometry" />
        </mxCell>
        <mxCell id="_730n6dWhtNbFrDa7IIU-22" value="" style="endArrow=none;html=1;rounded=0;exitX=0;exitY=0;exitDx=0;exitDy=0;entryX=1;entryY=1;entryDx=0;entryDy=0;" edge="1" parent="1" source="_730n6dWhtNbFrDa7IIU-21" target="_730n6dWhtNbFrDa7IIU-6">
          <mxGeometry width="50" height="50" relative="1" as="geometry">
            <mxPoint x="350" y="500" as="sourcePoint" />
            <mxPoint x="370" y="460" as="targetPoint" />
          </mxGeometry>
        </mxCell>
        <mxCell id="_730n6dWhtNbFrDa7IIU-23" value="" style="endArrow=classic;startArrow=classic;html=1;rounded=0;exitX=1;exitY=0.5;exitDx=0;exitDy=0;entryX=0;entryY=0.5;entryDx=0;entryDy=0;" edge="1" parent="1" source="_730n6dWhtNbFrDa7IIU-5" target="_730n6dWhtNbFrDa7IIU-6">
          <mxGeometry width="50" height="50" relative="1" as="geometry">
            <mxPoint x="470" y="400" as="sourcePoint" />
            <mxPoint x="520" y="350" as="targetPoint" />
          </mxGeometry>
        </mxCell>
        <mxCell id="_730n6dWhtNbFrDa7IIU-24" value="SPARQL Query Engine" style="rounded=1;whiteSpace=wrap;html=1;fillColor=#F8CECC;" vertex="1" parent="1">
          <mxGeometry x="360" y="200" width="160" height="40" as="geometry" />
        </mxCell>
        <mxCell id="_730n6dWhtNbFrDa7IIU-27" value="" style="endArrow=classic;html=1;rounded=0;exitX=0.5;exitY=1;exitDx=0;exitDy=0;entryX=0.5;entryY=0;entryDx=0;entryDy=0;" edge="1" parent="1" source="_730n6dWhtNbFrDa7IIU-3" target="_730n6dWhtNbFrDa7IIU-24">
          <mxGeometry width="50" height="50" relative="1" as="geometry">
            <mxPoint x="580" y="180" as="sourcePoint" />
            <mxPoint x="630" y="130" as="targetPoint" />
          </mxGeometry>
        </mxCell>
        <mxCell id="_730n6dWhtNbFrDa7IIU-28" value="&lt;ol&gt;&lt;li&gt;Basic algebraic conversion&lt;/li&gt;&lt;li&gt;Query optimization&lt;/li&gt;&lt;/ol&gt;" style="rounded=0;whiteSpace=wrap;html=1;align=left;fillColor=#F8CECC;" vertex="1" parent="1">
          <mxGeometry x="560" y="80" width="160" height="80" as="geometry" />
        </mxCell>
        <mxCell id="_730n6dWhtNbFrDa7IIU-29" value="" style="endArrow=none;html=1;rounded=0;entryX=0;entryY=1;entryDx=0;entryDy=0;exitX=1;exitY=0;exitDx=0;exitDy=0;" edge="1" parent="1" source="_730n6dWhtNbFrDa7IIU-24" target="_730n6dWhtNbFrDa7IIU-28">
          <mxGeometry width="50" height="50" relative="1" as="geometry">
            <mxPoint x="470" y="340" as="sourcePoint" />
            <mxPoint x="520" y="290" as="targetPoint" />
          </mxGeometry>
        </mxCell>
        <mxCell id="_730n6dWhtNbFrDa7IIU-30" value="Worker Threads" style="shape=cube;whiteSpace=wrap;html=1;boundedLbl=1;backgroundOutline=1;darkOpacity=0.05;darkOpacity2=0.1;fillColor=#C3ABD0;" vertex="1" parent="1">
          <mxGeometry x="370" y="280" width="150" height="40" as="geometry" />
        </mxCell>
        <mxCell id="_730n6dWhtNbFrDa7IIU-31" value="" style="endArrow=classic;html=1;rounded=0;exitX=0.5;exitY=1;exitDx=0;exitDy=0;entryX=0;entryY=0;entryDx=70;entryDy=0;entryPerimeter=0;" edge="1" parent="1" source="_730n6dWhtNbFrDa7IIU-24" target="_730n6dWhtNbFrDa7IIU-30">
          <mxGeometry width="50" height="50" relative="1" as="geometry">
            <mxPoint x="470" y="320" as="sourcePoint" />
            <mxPoint x="480" y="270" as="targetPoint" />
          </mxGeometry>
        </mxCell>
        <mxCell id="_730n6dWhtNbFrDa7IIU-32" value="" style="endArrow=classic;html=1;rounded=0;exitX=0;exitY=0;exitDx=85;exitDy=40;exitPerimeter=0;entryX=0.5;entryY=0;entryDx=0;entryDy=0;" edge="1" parent="1" source="_730n6dWhtNbFrDa7IIU-30" target="_730n6dWhtNbFrDa7IIU-5">
          <mxGeometry width="50" height="50" relative="1" as="geometry">
            <mxPoint x="470" y="320" as="sourcePoint" />
            <mxPoint x="520" y="270" as="targetPoint" />
            <Array as="points">
              <mxPoint x="455" y="340" />
              <mxPoint x="350" y="340" />
            </Array>
          </mxGeometry>
        </mxCell>
        <mxCell id="_730n6dWhtNbFrDa7IIU-33" value="" style="endArrow=classic;html=1;rounded=0;exitX=0;exitY=0;exitDx=85;exitDy=40;exitPerimeter=0;entryX=0.5;entryY=0;entryDx=0;entryDy=0;" edge="1" parent="1" source="_730n6dWhtNbFrDa7IIU-30" target="_730n6dWhtNbFrDa7IIU-6">
          <mxGeometry width="50" height="50" relative="1" as="geometry">
            <mxPoint x="470" y="320" as="sourcePoint" />
            <mxPoint x="520" y="270" as="targetPoint" />
            <Array as="points">
              <mxPoint x="455" y="340" />
              <mxPoint x="530" y="340" />
            </Array>
          </mxGeometry>
        </mxCell>
      </root>
    </mxGraphModel>
  </diagram>
</mxfile>
